<?xml version="1.0" standalone="no"?>
<!DOCTYPE svg PUBLIC "-//W3C//DTD SVG 20010904//EN"
 "http://www.w3.org/TR/2001/REC-SVG-20010904/DTD/svg10.dtd">
<svg version="1.0" xmlns="http://www.w3.org/2000/svg"
 width="640.000000pt" height="378.000000pt" viewBox="0 0 640.000000 378.000000"
 preserveAspectRatio="xMidYMid meet">

<g transform="translate(0.000000,378.000000) scale(0.100000,-0.100000)"
fill="#000000" stroke="none">
<path d="M0 1890 l0 -1890 3200 0 3200 0 0 1890 0 1890 -1440 0 c-953 0 -1440
-3 -1440 -10 0 -5 -7 -10 -15 -10 -8 0 -15 5 -15 10 0 6 -23 10 -50 10 -39 0
-57 -5 -76 -23 -22 -21 -24 -26 -13 -50 7 -15 16 -27 20 -27 16 0 38 -31 32
-46 -4 -10 -16 -14 -36 -12 -28 3 -32 8 -42 46 -7 31 -18 47 -43 62 -18 11
-35 27 -38 35 -7 18 -30 20 -38 3 -5 -10 -7 -10 -12 0 -4 9 -334 12 -1600 12
l-1594 0 0 -1890z m3580 1830 c0 -10 5 -22 10 -25 6 -3 10 -20 10 -37 0 -18 9
-41 20 -53 37 -39 18 -54 -63 -50 -88 4 -127 13 -127 30 0 18 30 28 45 15 17
-14 43 -3 50 21 7 21 20 25 30 9 12 -19 25 -10 25 16 0 14 -7 32 -16 41 -14
14 -18 13 -49 -17 -38 -37 -50 -28 -40 30 8 45 14 49 35 20 19 -26 28 -25 42
5 12 27 28 24 28 -5z m-600 -27 c0 -5 -16 -23 -35 -42 -30 -30 -35 -32 -41
-17 -7 19 2 31 38 51 28 16 38 18 38 8z m964 -23 c4 -21 11 -30 25 -30 28 0
34 -16 19 -50 -15 -35 -34 -39 -43 -10 -3 11 -10 20 -14 20 -3 0 -14 13 -24
29 -10 16 -27 31 -40 33 -12 2 -23 11 -25 21 -3 14 4 17 46 17 47 0 50 -2 56
-30z m136 -84 c0 -2 3 -11 6 -20 5 -12 0 -13 -22 -7 -37 9 -43 31 -10 31 14 0
26 -2 26 -4z m-254 -36 c-10 -3 -17 -10 -16 -15 1 -5 -3 -11 -9 -13 -6 -2 -11
2 -11 9 0 16 32 39 44 31 5 -3 2 -8 -8 -12z m-486 -75 c0 -8 -4 -15 -10 -15
-5 0 -10 7 -10 15 0 8 5 15 10 15 6 0 10 -7 10 -15z m304 -1 c5 -12 18 -15 59
-12 41 2 52 0 52 -12 0 -8 -9 -15 -20 -15 -13 0 -19 -5 -16 -15 2 -8 4 -30 3
-48 0 -17 4 -35 9 -38 5 -3 9 -20 9 -37 0 -25 7 -37 29 -50 38 -22 67 -22 98
3 52 41 72 16 26 -32 -23 -24 -24 -28 -9 -34 10 -4 22 -2 29 5 19 19 29 12 23
-16 -8 -36 5 -54 35 -51 20 3 24 -2 27 -29 2 -18 7 -33 13 -33 5 0 9 -9 9 -20
0 -11 5 -20 10 -20 6 0 10 -10 10 -22 0 -13 4 -30 10 -38 13 -21 50 15 50 51
0 15 4 30 9 33 12 8 52 -14 84 -46 30 -30 34 -40 15 -37 -7 1 -18 1 -24 0 -14
-1 -64 -47 -64 -58 0 -5 18 -27 40 -48 22 -22 40 -49 40 -61 0 -12 13 -31 30
-44 31 -24 40 -66 19 -87 -13 -13 -1 -57 37 -141 13 -29 24 -67 24 -85 0 -18
7 -43 16 -55 12 -17 13 -29 6 -50 l-10 -27 -1 28 c-1 15 -7 30 -15 33 -8 3
-17 20 -20 37 -7 33 -37 77 -54 77 -5 0 -17 -9 -27 -20 -19 -21 -45 -27 -45
-11 0 6 -12 23 -26 38 -22 23 -25 24 -21 8 3 -11 9 -33 12 -50 4 -16 10 -39
15 -50 4 -11 16 -74 27 -140 15 -91 23 -119 33 -117 8 2 28 4 45 5 16 2 35 6
42 10 6 4 14 3 18 -3 3 -5 -1 -10 -9 -10 -9 0 -16 -6 -16 -14 0 -8 -5 -16 -11
-18 -8 -3 -8 -10 2 -26 18 -29 33 -28 25 1 -6 24 27 56 39 37 8 -12 4 -121 -4
-135 -3 -5 -7 -28 -8 -50 -3 -70 -15 -140 -24 -149 -5 -6 -18 -1 -32 12 -12
11 -32 20 -45 19 -31 -2 -29 -35 3 -47 17 -6 25 -17 25 -32 -1 -21 -2 -21 -11
-5 -5 9 -21 17 -34 17 -20 0 -25 5 -25 24 0 44 -17 37 -40 -16 -14 -34 -25
-47 -30 -38 -9 14 -2 48 11 56 5 3 9 22 9 42 0 20 7 74 16 120 14 70 15 98 5
190 -18 174 -27 226 -39 230 -7 2 -12 16 -12 32 0 45 -10 63 -27 49 -12 -10
-13 -6 -7 31 5 33 4 42 -6 38 -7 -2 -14 -12 -16 -22 -3 -24 -14 -34 -14 -13 0
8 -7 23 -16 32 -9 8 -13 23 -10 31 4 10 -10 34 -39 66 -25 28 -45 54 -45 60 0
22 -164 207 -185 208 -5 0 -21 9 -35 20 -25 19 -25 19 -5 34 12 9 15 15 7 16
-24 0 -102 -76 -102 -100 0 -5 -4 -10 -10 -10 -5 0 -10 9 -10 19 0 11 -4 23
-10 26 -6 3 -10 -4 -10 -17 -1 -13 -18 -40 -40 -63 -44 -44 -46 -48 -26 -64 9
-8 22 -9 37 -3 71 28 173 40 183 23 9 -13 -70 -61 -102 -61 -15 0 -38 -7 -50
-16 -21 -15 -25 -15 -43 2 -10 9 -19 23 -19 31 0 19 -69 17 -76 -2 -4 -8 -12
-15 -19 -15 -7 0 -18 -7 -25 -15 -7 -8 -23 -15 -36 -15 -13 0 -24 -4 -24 -10
0 -5 -11 -10 -24 -10 -14 0 -28 -5 -31 -11 -4 -6 -14 -8 -22 -5 -8 3 -31 -3
-51 -14 -20 -11 -82 -41 -137 -66 -55 -26 -102 -50 -105 -53 -3 -3 -17 -12
-32 -20 -22 -11 -30 -12 -43 -1 -19 16 -20 31 -1 24 13 -5 77 20 116 45 63 41
157 91 171 91 9 0 19 6 22 13 3 7 24 19 48 27 24 8 58 24 74 36 17 12 44 25
61 28 17 4 42 18 54 32 13 13 28 24 33 24 13 0 47 30 47 42 0 16 -27 8 -54
-17 -15 -14 -33 -25 -41 -25 -8 0 -17 -4 -20 -10 -3 -5 -17 -10 -31 -10 -15 0
-24 -6 -24 -15 0 -9 -9 -15 -25 -15 -14 0 -25 5 -25 10 0 6 10 10 21 10 17 0
20 5 16 21 -7 26 30 62 91 89 12 5 22 14 22 20 0 5 11 10 25 10 14 0 25 5 25
10 0 6 9 10 20 10 11 0 20 5 20 10 0 13 -37 13 -45 0 -4 -6 -14 -10 -23 -9
-18 3 -82 -31 -82 -43 0 -5 -7 -8 -15 -8 -8 0 -15 -4 -15 -9 0 -5 -8 -11 -17
-15 -10 -3 -25 -10 -33 -15 -54 -34 -163 -78 -180 -74 -14 4 -20 0 -20 -11 0
-10 -5 -14 -10 -11 -6 4 -28 -7 -49 -24 -21 -17 -41 -28 -44 -25 -6 6 73 84
85 84 5 0 27 18 50 41 23 22 58 49 78 59 20 10 42 26 49 34 8 9 20 16 27 16 8
0 14 5 14 10 0 6 7 10 16 10 9 0 27 9 41 20 14 11 35 20 46 20 16 0 18 3 9 12
-7 7 -12 20 -12 29 0 17 7 21 63 33 15 4 25 11 22 16 -6 10 11 13 58 10 16 -1
27 4 28 12 0 7 4 3 9 -9 11 -27 25 -30 34 -7 4 11 -1 18 -14 21 -11 3 -21 13
-21 22 -1 14 -2 14 -6 -1 -6 -23 -73 -22 -90 1 -10 14 -12 14 -18 -1 -4 -10
-14 -18 -22 -18 -7 0 -25 -11 -39 -25 -14 -14 -36 -25 -49 -25 -14 0 -25 -4
-25 -10 0 -5 -11 -12 -25 -16 -14 -3 -25 -10 -25 -15 0 -5 -6 -9 -14 -9 -18 0
-76 -32 -76 -42 0 -5 -6 -8 -14 -8 -19 0 -81 -36 -126 -72 -74 -60 -59 -24 24
57 48 47 94 85 102 85 8 0 17 7 20 15 4 8 11 15 18 15 16 1 60 39 53 47 -7 7
-98 -37 -117 -57 -18 -19 -90 -70 -98 -70 -6 0 -12 -6 -15 -12 -2 -7 -7 -10
-11 -7 -9 8 37 55 154 154 124 107 164 135 190 135 13 0 20 7 20 20 0 21 15
27 25 10 3 -5 24 -10 45 -10 21 0 42 5 45 10 4 6 -5 10 -20 10 -14 0 -40 7
-57 16 -29 15 -31 15 -57 -9 -14 -13 -39 -33 -56 -43 -16 -9 -58 -46 -93 -81
-35 -35 -70 -63 -78 -63 -8 0 -17 -7 -20 -15 -4 -8 -12 -15 -20 -15 -8 0 -14
-4 -14 -10 0 -5 -4 -10 -10 -10 -20 0 -9 22 27 56 20 19 33 37 30 40 -3 3 -30
-17 -59 -45 -55 -52 -68 -60 -68 -38 0 14 22 48 71 108 20 24 40 54 43 67 7
19 4 22 -24 22 -43 0 -239 -46 -295 -69 -11 -5 -50 -21 -87 -36 -38 -15 -68
-31 -68 -36 0 -5 -8 -13 -17 -16 -10 -4 -39 -22 -64 -40 -26 -18 -49 -33 -52
-33 -11 0 -92 -58 -112 -80 -11 -12 -30 -26 -43 -31 -13 -5 -21 -13 -17 -19 4
-6 15 -6 31 0 23 9 24 8 13 -13 -16 -31 -61 -76 -76 -77 -7 0 -32 -20 -56 -44
l-44 -44 1 37 c1 33 5 38 49 60 51 26 55 34 32 57 -21 21 -19 31 7 45 13 7 31
23 41 36 33 41 49 54 76 59 34 7 68 35 73 60 2 14 13 20 43 22 44 4 85 34 85
63 0 10 13 27 29 39 17 11 36 36 42 55 13 35 39 48 39 20 0 -20 9 -19 33 3 13
11 35 17 67 17 32 0 54 6 68 18 11 10 35 20 53 22 17 3 42 14 54 25 19 18 26
19 47 9 14 -6 31 -22 37 -35 6 -13 19 -24 30 -24 11 0 23 -4 26 -10 10 -17 20
-11 40 23 10 17 23 35 29 39 18 13 36 9 36 -8 0 -9 6 -14 13 -11 6 2 11 11 11
20 -1 10 10 17 33 22 19 3 45 17 58 31 12 13 27 24 34 24 20 0 12 -30 -11 -41
-26 -12 -64 -59 -48 -59 5 0 10 4 10 9 0 9 48 21 82 22 10 0 20 4 23 10 8 12
42 12 50 -1 3 -5 -13 -19 -35 -32 -42 -24 -51 -38 -25 -38 9 0 18 7 21 15 4 9
19 15 35 15 29 0 38 -13 19 -25 -17 -11 -11 -25 11 -25 25 0 139 110 139 134
0 18 -44 23 -55 6 -4 -6 -11 -8 -16 -5 -10 7 -12 48 -2 58 12 13 51 7 57 -9z
m720 -14 c14 -17 23 -37 20 -45 -7 -18 -9 -18 -36 -2 -40 23 -58 41 -58 59 0
30 45 22 74 -12z m-1074 -30 c0 -5 -4 -10 -10 -10 -5 0 -10 5 -10 10 0 6 5 10
10 10 6 0 10 -4 10 -10z m987 -75 c8 -3 11 -15 7 -35 -6 -27 -4 -31 25 -36 29
-6 31 -9 31 -52 0 -55 27 -120 53 -128 11 -3 16 -12 13 -21 -3 -8 -6 -24 -6
-34 0 -11 -13 -32 -28 -47 -16 -15 -32 -35 -35 -44 -8 -22 -50 -24 -67 -3 -11
13 -9 20 9 39 l23 24 -22 7 c-26 8 -21 31 7 27 10 -1 27 6 37 16 15 18 16 25
4 72 -16 63 -38 82 -66 57 -10 -9 -30 -17 -45 -17 -27 0 -46 18 -30 29 6 3 13
15 16 26 3 11 8 30 12 42 4 16 1 23 -15 28 -24 8 -25 19 -3 45 16 18 32 19 80
5z m-1117 -16 c0 -5 -4 -9 -10 -9 -5 0 -10 7 -10 16 0 8 5 12 10 9 6 -3 10
-10 10 -16z m-180 -226 c0 -5 -6 -25 -13 -45 -15 -42 -55 -78 -87 -78 -17 0
-20 -4 -15 -22 6 -22 6 -22 -9 -4 -16 19 -17 19 -68 -4 -29 -14 -69 -35 -88
-47 -19 -13 -38 -23 -42 -23 -13 0 -100 -85 -135 -132 -19 -27 -40 -48 -46
-48 -10 -1 -86 -85 -107 -121 -4 -6 -13 -8 -19 -5 -16 10 0 36 70 108 34 35
73 79 87 98 60 80 123 127 252 190 68 33 82 39 120 48 26 6 38 16 45 38 6 16
14 35 18 42 9 13 37 17 37 5z m70 -73 c0 -5 -4 -10 -10 -10 -5 0 -10 5 -10 10
0 6 5 10 10 10 6 0 10 -4 10 -10z m328 -28 c2 -7 -3 -12 -11 -12 -8 0 -20 -7
-27 -15 -7 -8 -21 -15 -31 -15 -11 0 -19 -4 -19 -10 0 -5 -7 -10 -14 -10 -8 0
-37 -14 -63 -32 -53 -36 -54 -36 -99 -73 -31 -25 -54 -32 -54 -17 0 9 96 92
107 92 13 1 53 37 53 48 0 6 8 8 18 5 10 -2 24 3 31 11 8 9 22 16 32 16 11 0
19 4 19 9 0 10 28 20 44 17 6 -1 12 -8 14 -14z m1162 -21 c0 -26 -27 -52 -45
-45 -20 8 -19 20 5 44 25 25 40 26 40 1z m-1690 -55 c0 -3 -4 -8 -10 -11 -5
-3 -10 -1 -10 4 0 6 5 11 10 11 6 0 10 -2 10 -4z m1690 -42 c0 -18 -14 -18
-29 0 -9 11 -9 15 1 19 17 6 28 -1 28 -19z m-1656 -29 c16 -12 17 -15 4 -15
-8 0 -21 7 -28 15 -16 19 -1 19 24 0z m-464 -5 c0 -5 -5 -10 -11 -10 -5 0 -7
5 -4 10 3 6 8 10 11 10 2 0 4 -4 4 -10z m359 -11 c23 -19 24 -23 12 -52 -8
-18 -16 -51 -18 -74 -3 -24 -9 -43 -14 -43 -4 0 -11 -17 -14 -37 -11 -64 -13
-67 -32 -52 -14 12 -15 11 -9 -9 5 -14 3 -29 -4 -37 -10 -12 -9 -20 4 -39 14
-22 14 -27 1 -39 -8 -8 -14 -28 -14 -43 1 -16 -1 -38 -3 -49 -2 -14 2 -19 12
-17 12 3 13 1 3 -9 -15 -15 -17 -105 -3 -114 15 -9 12 -51 -5 -65 -21 -17 -19
-27 6 -33 12 -3 18 -10 14 -17 -4 -6 -13 -9 -21 -6 -11 4 -14 -5 -14 -38 0
-31 5 -46 16 -50 19 -7 14 -31 -7 -31 -11 0 -13 -17 -11 -80 1 -46 7 -82 14
-86 6 -4 12 -21 12 -38 1 -26 -2 -29 -21 -24 -26 6 -32 -14 -8 -23 8 -4 15
-17 15 -31 0 -22 -3 -24 -25 -19 -36 9 -32 -13 10 -54 41 -40 68 -87 54 -96
-23 -14 -8 -34 26 -34 22 0 38 -6 41 -15 8 -19 48 -20 63 -1 17 20 51 27 51
10 0 -8 -9 -14 -20 -14 -10 0 -24 -9 -30 -20 -13 -24 -27 -25 -67 -5 -17 8
-65 18 -108 22 -60 5 -83 11 -105 30 -15 12 -35 23 -43 23 -9 0 -19 5 -22 10
-9 15 -35 12 -35 -5 0 -17 -30 -35 -59 -35 -12 0 -21 -4 -21 -10 0 -5 -7 -10
-15 -10 -18 0 -19 11 -4 44 10 20 15 23 29 13 24 -14 48 5 52 41 2 22 9 28 33
30 19 2 43 17 65 41 19 21 43 41 52 44 18 6 35 53 24 64 -3 3 -17 -6 -30 -20
-14 -15 -34 -27 -46 -27 -11 0 -20 -4 -20 -10 0 -5 -10 -10 -22 -10 l-22 0 22
20 c24 23 29 69 10 88 -9 9 -5 12 19 12 35 0 49 13 36 33 -4 6 -6 21 -5 32 2
11 -4 29 -13 40 -15 20 -16 20 -31 -2 -13 -17 -20 -20 -39 -13 -12 5 -33 6
-46 3 l-23 -6 25 32 c13 18 28 39 33 46 15 20 -1 45 -29 45 -14 0 -25 3 -25 7
0 12 33 43 45 43 40 0 82 69 63 104 -6 11 -1 28 17 57 22 34 25 45 16 70 -8
23 -7 29 5 29 27 0 27 30 0 64 -15 20 -23 41 -20 50 7 18 20 21 29 6 11 -18
26 -10 23 13 -3 22 -48 39 -48 18 0 -6 -4 -11 -10 -11 -16 0 -11 36 8 60 16
20 19 21 31 6 22 -26 38 -19 45 20 4 19 10 43 13 51 4 10 2 14 -4 10 -6 -4
-16 0 -23 7 -12 15 -7 22 51 72 54 47 88 104 62 104 -11 0 -32 48 -25 55 12
11 48 3 71 -16z m-379 -16 c0 -5 -9 -19 -19 -33 -17 -21 -21 -22 -35 -11 -15
13 -14 16 11 32 31 19 43 23 43 12z m645 -33 c-3 -5 -10 -10 -16 -10 -5 0 -9
5 -9 10 0 6 7 10 16 10 8 0 12 -4 9 -10z m1495 0 c0 -5 -4 -10 -10 -10 -5 0
-10 5 -10 10 0 6 5 10 10 10 6 0 10 -4 10 -10z m-205 -18 c0 -18 -20 -15 -23
4 -3 10 1 15 10 12 7 -3 13 -10 13 -16z m-1325 -2 c0 -5 -8 -10 -17 -10 -15 0
-16 2 -3 10 19 12 20 12 20 0z m561 -3 c-1 -12 -15 -9 -19 4 -3 6 1 10 8 8 6
-3 11 -8 11 -12z m-1271 -27 c0 -5 -4 -10 -10 -10 -5 0 -10 5 -10 10 0 6 5 10
10 10 6 0 10 -4 10 -10z m600 0 c0 -5 -9 -10 -20 -10 -11 0 -20 5 -20 10 0 6
9 10 20 10 11 0 20 -4 20 -10z m70 0 c0 -5 -5 -10 -11 -10 -5 0 -7 5 -4 10 3
6 8 10 11 10 2 0 4 -4 4 -10z m307 -16 c5 -15 -20 -24 -37 -14 -7 4 -9 13 -5
19 8 14 37 11 42 -5z m-59 -16 c-5 -14 -16 -20 -111 -64 -31 -15 -60 -30 -63
-35 -6 -11 -34 -12 -34 -1 0 4 15 16 33 27 17 10 42 29 54 42 12 13 31 23 43
23 11 0 20 5 20 10 0 6 14 10 31 10 20 0 29 -4 27 -12z m1249 -9 c6 -6 8 -19
6 -30 -7 -27 -83 -28 -83 -1 0 10 12 23 28 29 36 15 36 15 49 2z m-1543 -14
c-4 -8 -15 -15 -25 -15 -10 0 -19 7 -19 15 0 9 9 15 25 15 18 0 23 -4 19 -15z
m-738 -22 c-10 -10 -19 5 -10 18 6 11 8 11 12 0 2 -7 1 -15 -2 -18z m1291 -9
c4 -11 -5 -24 -26 -41 -23 -18 -31 -32 -31 -57 0 -17 5 -37 12 -44 9 -9 9 -12
0 -12 -7 0 -12 -7 -12 -15 0 -19 -4 -20 65 16 50 26 63 29 84 19 21 -10 27 -8
41 10 10 14 22 19 33 14 22 -8 22 -23 0 -30 -10 -3 -41 -16 -69 -30 -28 -13
-67 -24 -87 -24 -57 0 -44 -16 14 -18 35 -1 52 3 56 14 7 19 23 17 51 -5 29
-25 30 -46 1 -31 -16 9 -23 8 -33 -5 -6 -9 -18 -15 -26 -13 -8 2 -15 -5 -17
-14 -3 -11 8 -22 31 -33 20 -10 36 -25 36 -34 -1 -14 -3 -13 -15 3 -14 19 -15
19 -35 1 -11 -10 -20 -26 -20 -35 0 -10 -7 -23 -15 -30 -10 -8 -12 -17 -6 -24
13 -17 10 -67 -4 -73 -7 -2 -26 2 -43 11 -21 11 -32 12 -40 4 -8 -8 -15 -8
-25 0 -13 11 -57 6 -57 -7 0 -4 -15 -8 -32 -8 -18 -1 -58 -6 -88 -13 -30 -6
-76 -13 -103 -14 -26 -2 -53 -9 -61 -15 -10 -8 -16 -9 -21 -1 -10 15 -55 12
-55 -4 0 -8 -10 -16 -22 -18 -23 -3 -40 -48 -19 -48 6 0 11 5 11 10 0 6 10 10
23 10 l22 0 -24 -19 c-30 -23 -25 -56 8 -56 41 0 36 -25 -8 -42 -23 -9 -41
-20 -41 -25 0 -14 -24 -8 -50 13 -23 20 -24 22 -7 34 12 8 14 15 8 20 -19 11
-12 25 14 25 29 0 34 24 8 34 -10 3 -31 14 -48 25 -16 11 -38 20 -47 20 -25 1
-23 -25 2 -32 21 -5 28 -37 9 -37 -33 0 -53 82 -23 94 27 10 44 7 44 -9 0 -16
25 -21 34 -6 14 21 -8 40 -52 47 -52 8 -71 26 -72 65 0 29 26 47 44 29 8 -8 4
-12 -12 -16 -23 -7 -31 -24 -10 -24 6 0 22 -9 34 -21 22 -21 64 -20 64 2 0 5
7 9 15 9 8 0 15 -4 15 -10 0 -5 -7 -10 -15 -10 -21 0 -19 -16 5 -40 16 -16 25
-18 40 -10 11 6 50 14 88 17 37 3 70 10 73 15 4 6 40 12 80 14 95 5 165 30
211 76 16 16 17 22 8 32 -10 8 -14 8 -17 -2 -7 -18 -88 -53 -137 -58 -127 -14
-202 -27 -211 -35 -12 -12 -56 -11 -75 1 -13 9 -13 10 0 11 8 1 23 0 33 -1 10
-1 26 5 35 13 10 9 42 17 72 19 30 2 64 9 75 14 25 13 100 33 140 36 21 2 31
9 34 23 2 11 10 25 19 31 8 6 13 17 10 24 -3 10 -8 9 -20 -4 -9 -9 -26 -16
-37 -16 -12 0 -21 -4 -21 -10 0 -5 -9 -10 -20 -10 -10 0 -35 -8 -55 -17 -26
-13 -41 -14 -52 -7 -28 17 -27 34 2 34 14 0 39 7 54 14 15 8 37 13 48 10 15
-4 28 4 48 30 33 43 28 55 -11 29 -27 -18 -103 -39 -176 -50 -21 -3 -38 -9
-38 -14 0 -5 -10 -9 -23 -9 -13 0 -32 -7 -43 -15 -10 -8 -29 -15 -40 -15 -12
0 -27 -7 -34 -15 -14 -17 -46 -20 -55 -5 -3 5 14 18 39 30 25 11 48 24 51 30
3 5 15 10 26 10 21 0 108 25 144 41 11 5 40 14 65 20 25 5 56 13 68 16 13 3
35 16 49 29 14 13 34 24 44 24 11 0 19 7 19 15 0 23 -29 18 -66 -10 -18 -14
-38 -25 -45 -25 -7 0 -26 -4 -43 -9 -17 -5 -60 -17 -96 -27 -110 -28 -164 -47
-178 -61 -7 -7 -22 -13 -33 -13 -10 0 -19 -4 -19 -10 0 -5 -9 -10 -19 -10 -11
0 -22 -4 -25 -9 -6 -8 -56 -22 -56 -15 0 11 42 44 57 44 22 0 93 32 93 42 0 4
14 8 30 8 18 0 33 6 36 15 4 8 14 15 24 15 10 0 20 6 23 13 3 9 16 12 34 10
19 -3 34 1 42 11 8 9 23 16 35 16 12 0 27 5 33 11 6 6 30 12 54 13 32 2 48 9
65 29 13 15 28 27 34 27 5 0 10 7 10 15 0 17 -16 20 -25 5 -8 -13 -63 -37
-105 -45 -19 -4 -46 -16 -60 -25 -19 -13 -30 -16 -43 -9 -21 12 -22 29 -2 29
13 0 61 18 105 40 9 4 30 11 48 15 18 3 32 11 32 16 0 5 9 9 20 9 11 0 20 7
20 15 0 9 9 15 25 15 14 0 25 5 25 10 0 16 40 11 47 -6z m-1307 -14 c0 -6 -7
-13 -15 -16 -8 -4 -15 -15 -15 -25 0 -11 -5 -28 -12 -39 -15 -23 -4 -37 16
-21 11 10 21 9 45 -4 35 -18 36 -22 17 -62 -14 -28 -19 -39 -51 -123 -9 -25
-21 -53 -26 -62 -5 -10 -9 -26 -9 -36 0 -10 -3 -22 -6 -25 -8 -7 -10 -33 -22
-202 -5 -66 -12 -128 -16 -137 -5 -11 -4 -18 2 -18 6 0 12 6 15 13 2 6 8 9 12
4 5 -4 3 -13 -3 -19 -18 -18 -15 -38 13 -74 29 -37 31 -50 11 -57 -9 -4 -12
-14 -9 -26 4 -15 1 -21 -11 -21 -19 0 -22 -40 -3 -40 6 0 3 -6 -8 -12 -11 -6
-22 -12 -24 -14 -4 -4 55 -64 63 -64 3 0 6 9 6 21 0 11 5 29 11 40 7 15 7 24
-1 34 -9 11 -7 18 10 35 28 28 40 62 40 116 0 24 5 44 10 44 6 0 10 -10 10
-23 0 -13 4 -27 9 -32 5 -6 12 -35 15 -65 12 -113 11 -141 -4 -155 -8 -8 -35
-31 -59 -53 -33 -29 -43 -44 -37 -57 6 -16 11 -13 44 22 55 58 96 85 111 70 9
-9 16 -9 31 1 24 15 25 10 4 -29 -11 -22 -20 -28 -33 -24 -32 10 -102 -40
-116 -84 -6 -21 -45 -30 -45 -11 0 22 -18 8 -24 -17 -3 -16 -15 -39 -26 -53
-20 -24 -21 -25 -35 -6 -19 25 -19 50 0 66 8 7 15 20 15 30 0 10 -7 23 -15 30
-8 7 -15 20 -15 30 0 10 -7 31 -15 46 -8 16 -15 37 -15 46 0 9 -4 20 -10 23
-5 3 -10 18 -10 33 0 15 -7 50 -16 77 -23 74 -24 431 -1 495 9 25 17 59 17 77
0 17 5 35 10 38 6 3 10 16 10 29 0 12 5 27 11 33 8 8 8 17 0 31 -11 21 -6 52
9 52 5 0 10 -6 13 -12 2 -7 19 19 36 57 47 102 91 162 91 125z m1483 -28 c33
-14 31 -36 -4 -40 -13 -2 -38 -9 -55 -17 -35 -17 -100 -10 -126 13 -16 14 -16
16 0 38 15 21 22 23 62 18 25 -4 51 -11 58 -16 8 -7 12 -7 12 0 0 6 -5 12 -12
14 -6 2 -8 10 -4 17 6 10 11 9 24 -1 10 -8 30 -20 45 -26z m679 23 c0 -5 -5
-11 -11 -13 -6 -2 -11 4 -11 13 0 9 5 15 11 13 6 -2 11 -8 11 -13z m-1386 -20
c-14 -13 -26 -29 -26 -35 0 -12 -3 -12 -24 -4 -26 10 -20 44 8 44 14 0 28 5
31 10 3 6 13 10 22 10 12 0 9 -7 -11 -25z m-136 -5 c0 -5 -5 -10 -11 -10 -5 0
-7 5 -4 10 3 6 8 10 11 10 2 0 4 -4 4 -10z m175 -40 c-10 -11 -27 -20 -38 -20
-20 0 -20 0 -1 19 10 11 28 20 38 20 18 1 18 0 1 -19z m1346 -43 c-13 -13 -26
-3 -16 12 3 6 11 8 17 5 6 -4 6 -10 -1 -17z m-1501 8 c0 -11 -24 -55 -30 -55
-4 0 -5 14 -2 30 2 17 10 30 18 30 8 0 14 -2 14 -5z m85 -5 c-3 -5 -15 -10
-26 -10 -10 0 -19 5 -19 10 0 6 12 10 26 10 14 0 23 -4 19 -10z m560 0 c-3 -5
-13 -10 -21 -10 -8 0 -12 5 -9 10 3 6 13 10 21 10 8 0 12 -4 9 -10z m-335 -20
c0 -5 -3 -10 -7 -11 -30 -3 -48 -9 -51 -18 -2 -6 -12 -11 -22 -11 -9 0 -23 -7
-30 -15 -12 -15 -50 -21 -50 -8 0 14 34 43 50 43 10 0 31 7 46 15 33 17 64 20
64 5z m750 0 c0 -5 -7 -10 -16 -10 -8 0 -12 5 -9 10 3 6 10 10 16 10 5 0 9 -4
9 -10z m550 -40 c0 -13 10 -24 25 -30 14 -5 25 -16 25 -25 0 -17 -16 -20 -25
-5 -9 15 -48 12 -71 -5 -23 -17 -34 -19 -34 -5 0 6 6 10 13 10 12 0 37 44 37
67 0 7 7 13 15 13 8 0 15 -9 15 -20z m-1650 -10 c0 -5 -5 -10 -11 -10 -5 0 -7
5 -4 10 3 6 8 10 11 10 2 0 4 -4 4 -10z m-470 -26 c0 -8 -5 -12 -10 -9 -6 4
-8 11 -5 16 9 14 15 11 15 -7z m440 -4 c0 -5 -9 -10 -20 -10 -11 0 -20 5 -20
10 0 6 9 10 20 10 11 0 20 -4 20 -10z m195 0 c3 -5 -3 -10 -15 -10 -12 0 -18
5 -15 10 3 6 10 10 15 10 5 0 12 -4 15 -10z m745 -5 c0 -17 -2 -18 -24 -9 -23
9 -20 24 4 24 11 0 20 -7 20 -15z m500 -26 c0 -6 -4 -7 -10 -4 -5 3 -10 11
-10 16 0 6 5 7 10 4 6 -3 10 -11 10 -16z m-1380 -6 c21 -18 26 -33 12 -33 -11
0 -52 35 -52 44 0 11 20 6 40 -11z m95 7 c3 -5 -3 -10 -14 -10 -12 0 -21 5
-21 10 0 6 6 10 14 10 8 0 18 -4 21 -10z m-425 -20 c0 -5 -7 -10 -15 -10 -8 0
-15 5 -15 10 0 6 7 10 15 10 8 0 15 -4 15 -10z m1947 -6 c-3 -3 -12 -4 -19 -1
-8 3 -5 6 6 6 11 1 17 -2 13 -5z m-1877 -22 c0 -4 -6 -14 -12 -21 -7 -6 -13
-31 -13 -54 0 -45 -18 -57 -39 -25 -8 13 -8 23 2 38 6 11 12 28 12 38 0 10 3
22 7 25 9 10 43 9 43 -1z m230 -2 c0 -5 -4 -10 -10 -10 -5 0 -10 5 -10 10 0 6
5 10 10 10 6 0 10 -4 10 -10z m-550 -50 c0 -5 -4 -10 -10 -10 -5 0 -10 5 -10
10 0 6 5 10 10 10 6 0 10 -4 10 -10z m900 -16 c0 -22 -3 -25 -22 -21 -26 7
-104 -10 -131 -28 -10 -7 -27 -11 -38 -8 -10 3 -19 0 -19 -6 0 -6 -7 -11 -15
-11 -8 0 -15 5 -15 10 0 6 -7 10 -15 10 -8 0 -15 -4 -15 -9 0 -5 -15 -11 -34
-13 -24 -3 -32 0 -29 9 3 6 16 13 31 15 37 4 38 25 3 33 -40 9 -40 23 -1 17
17 -2 30 -8 30 -13 0 -5 7 -9 15 -9 8 0 15 -7 15 -15 0 -22 13 -19 44 10 15
14 45 28 67 31 22 4 42 11 45 15 3 5 23 9 45 9 35 0 39 -2 39 -26z m-705 -54
c-20 -22 -31 -20 -22 5 4 8 14 15 23 15 16 0 16 -2 -1 -20z m1273 -12 c-7 -20
-48 -23 -48 -4 0 11 9 16 26 16 16 0 24 -5 22 -12z m-238 -79 c0 -5 8 -9 18
-9 10 0 23 -5 30 -12 15 -15 -3 -49 -22 -42 -20 8 -28 -12 -11 -26 23 -19 18
-31 -11 -28 -32 4 -43 -18 -15 -27 25 -8 28 -40 5 -49 -17 -6 -63 22 -64 40 0
5 5 15 12 22 9 9 3 12 -28 12 -23 0 -44 -3 -47 -6 -4 -4 -25 -8 -48 -10 -23
-3 -49 -10 -57 -17 -12 -9 -16 -9 -19 1 -7 18 -103 16 -131 -4 -35 -24 -27
-37 17 -30 32 5 39 3 37 -10 0 -9 5 -19 12 -21 6 -3 12 3 12 12 0 13 9 16 44
14 25 -2 51 3 60 10 8 7 24 10 35 6 11 -3 29 -1 40 4 11 6 27 8 35 5 22 -8 20
-34 -2 -34 -10 0 -22 -4 -28 -9 -5 -6 -44 -12 -87 -14 -43 -3 -83 -9 -90 -14
-13 -10 -67 -10 -83 0 -14 8 -84 -16 -84 -29 0 -7 7 -14 15 -18 21 -8 20 -65
-2 -73 -15 -6 -15 -7 3 -14 32 -13 64 -10 64 5 0 8 -4 16 -9 18 -5 2 -11 19
-13 38 l-3 35 75 2 c83 2 137 8 160 16 8 4 29 8 45 9 49 5 37 -25 -17 -43 -26
-8 -51 -19 -55 -22 -6 -7 23 -11 57 -9 8 0 19 -6 23 -14 13 -23 27 -16 27 14
0 17 8 32 21 40 24 15 24 15 33 -14 4 -15 2 -24 -9 -28 -8 -3 -15 -14 -15 -25
0 -10 -14 -31 -31 -45 -33 -28 -31 -51 4 -40 30 10 54 35 62 67 6 22 11 26 29
21 26 -7 66 -50 66 -71 0 -13 -8 -14 -49 -9 -47 6 -49 6 -53 -21 -2 -16 -4
-57 -3 -92 0 -61 2 -65 25 -71 18 -5 24 -12 23 -28 -3 -24 0 -25 35 -16 12 4
22 13 22 20 0 8 11 19 25 24 14 5 25 14 25 20 0 20 31 9 68 -24 30 -28 35 -37
25 -47 -7 -7 -13 -28 -13 -46 0 -29 3 -33 25 -33 17 0 25 -6 25 -17 0 -9 7
-25 16 -35 16 -16 15 -18 -1 -24 -10 -4 -26 -2 -36 4 -10 7 -25 12 -33 12 -7
0 -19 7 -27 16 -8 10 -22 14 -38 11 -16 -3 -30 1 -37 11 -10 14 -15 15 -25 5
-7 -7 -21 -13 -31 -13 -10 0 -18 -7 -18 -16 0 -13 7 -15 35 -11 35 6 55 -7 38
-24 -11 -11 -113 22 -113 37 0 7 10 15 23 18 21 6 21 7 -12 37 -26 24 -31 33
-20 40 17 10 12 15 -24 24 -24 6 -27 4 -27 -18 0 -25 -25 -44 -35 -27 -9 14
-65 12 -65 -1 0 -16 -130 -3 -170 17 -21 11 -30 23 -30 40 0 20 5 24 30 24 23
0 30 4 30 20 0 13 -7 20 -20 20 -11 0 -30 11 -42 25 -25 29 -48 33 -48 7 0
-32 -12 -32 -50 -2 -35 27 -38 28 -55 12 -13 -13 -19 -14 -22 -4 -3 6 -11 12
-19 12 -8 0 -17 7 -20 15 -7 17 -34 21 -34 5 0 -5 5 -10 10 -10 13 0 13 -27
-1 -35 -6 -4 -13 2 -16 14 -6 25 -21 27 -37 6 -8 -10 -15 -12 -26 -5 -13 8
-11 11 8 16 12 4 22 14 22 23 0 17 62 51 93 51 22 0 22 -16 0 -25 -17 -6 -17
-7 0 -17 10 -5 25 -7 33 -4 20 8 18 43 -3 55 -21 12 -22 12 40 17 28 3 47 0
47 -6 0 -5 -9 -10 -20 -10 -22 0 -50 -42 -31 -48 6 -2 11 -10 11 -18 0 -8 10
-14 25 -14 14 0 25 5 25 10 0 6 -9 10 -20 10 -11 0 -20 2 -20 5 0 15 76 70 97
70 33 1 61 31 45 47 -10 10 -17 10 -34 -1 -12 -7 -47 -15 -77 -18 -44 -4 -59
-2 -70 11 -11 14 -11 16 2 16 8 0 20 7 27 15 11 13 8 15 -13 15 -33 0 -44 16
-17 25 28 9 25 34 -6 45 -25 10 -25 10 -7 34 15 21 26 25 66 24 58 -1 64 4 50
41 -9 24 -7 30 11 42 12 8 36 16 54 19 54 8 41 25 -23 28 -56 3 -80 15 -68 35
2 4 11 3 19 -4 11 -9 24 -8 57 4 25 10 68 15 108 14 44 -1 77 4 100 15 76 37
99 44 138 40 23 -2 41 -8 41 -13z m-1180 -47 c0 -4 -5 -13 -12 -20 -6 -6 -9
-15 -5 -19 4 -4 13 -1 19 5 10 10 48 18 48 10 0 -2 -7 -21 -14 -43 -18 -50
-51 -57 -51 -11 -1 16 -6 31 -13 34 -15 5 -15 25 0 40 14 14 28 16 28 4z
m1420 -1 c0 -12 -20 -25 -27 -18 -7 7 6 27 18 27 5 0 9 -4 9 -9z m-43 -27 c-3
-3 -12 -4 -19 -1 -8 3 -5 6 6 6 11 1 17 -2 13 -5z m-69 -83 c-4 -33 -39 -40
-69 -12 -28 26 -17 40 32 39 37 0 40 -2 37 -27z m-833 0 c3 -5 1 -12 -5 -16
-5 -3 -10 1 -10 9 0 18 6 21 15 7z m70 -1 c-3 -5 -13 -10 -21 -10 -8 0 -14 5
-14 10 0 6 9 10 21 10 11 0 17 -4 14 -10z m5 -50 c0 -5 -7 -10 -15 -10 -8 0
-15 5 -15 10 0 6 7 10 15 10 8 0 15 -4 15 -10z m-675 -20 c0 -22 -39 -19 -43
3 -3 15 1 18 20 15 12 -2 23 -10 23 -18z m159 -23 c-3 -9 -17 -17 -30 -17 -13
0 -24 -4 -24 -10 0 -5 -5 -10 -12 -10 -7 0 3 15 22 34 34 34 57 35 44 3z
m1115 24 c9 -6 10 -10 2 -16 -16 -9 -44 2 -36 15 8 12 16 12 34 1z m-569 -112
c0 -5 -4 -9 -10 -9 -5 0 -10 7 -10 16 0 8 5 12 10 9 6 -3 10 -10 10 -16z
m1208 -22 c4 -22 -38 -81 -49 -70 -12 12 21 95 35 90 6 -2 12 -11 14 -20z
m-1595 5 c3 -4 -5 -19 -18 -34 -20 -24 -25 -25 -36 -12 -10 12 -9 16 9 21 12
3 22 12 22 19 0 15 16 19 23 6z m-138 -32 c3 -5 -1 -10 -9 -10 -9 0 -16 5 -16
10 0 6 4 10 9 10 6 0 13 -4 16 -10z m535 0 c0 -5 -7 -10 -15 -10 -8 0 -15 5
-15 10 0 6 7 10 15 10 8 0 15 -4 15 -10z m-575 -10 c-3 -5 -10 -10 -16 -10 -5
0 -9 5 -9 10 0 6 7 10 16 10 8 0 12 -4 9 -10z m-597 -38 c2 -7 -3 -12 -12 -12
-9 0 -16 7 -16 16 0 17 22 14 28 -4z m2052 -12 c0 -11 -4 -20 -10 -20 -5 0
-10 9 -10 20 0 11 5 20 10 20 6 0 10 -9 10 -20z m600 12 c0 -13 -12 -22 -22
-16 -10 6 -1 24 13 24 5 0 9 -4 9 -8z m-260 -52 c0 -28 -4 -40 -14 -40 -8 0
-17 -7 -20 -16 -4 -9 -9 -14 -12 -11 -3 3 2 19 10 36 9 16 16 39 16 51 0 11 5
20 10 20 6 0 10 -18 10 -40z m102 25 c0 -5 -5 -11 -11 -13 -6 -2 -11 4 -11 13
0 9 5 15 11 13 6 -2 11 -8 11 -13z m-1717 -13 c0 -18 -20 -15 -23 4 -3 10 1
15 10 12 7 -3 13 -10 13 -16z m1833 -82 c-13 -30 -28 -40 -28 -18 0 6 8 29 18
51 14 33 18 36 20 18 2 -12 -2 -35 -10 -51z m-1923 10 c3 -5 1 -10 -4 -10 -6
0 -11 5 -11 10 0 6 2 10 4 10 3 0 8 -4 11 -10z m1415 0 c0 -5 -4 -10 -10 -10
-5 0 -10 5 -10 10 0 6 5 10 10 10 6 0 10 -4 10 -10z m-1383 -26 c-3 -3 -12 -4
-19 -1 -8 3 -5 6 6 6 11 1 17 -2 13 -5z m1849 -71 c-11 -11 -17 4 -9 23 7 18
8 18 11 1 2 -10 1 -21 -2 -24z m-1216 -2 c0 -26 -10 -31 -39 -20 -19 8 -21 12
-11 24 18 22 50 19 50 -4z m960 4 c0 -8 -4 -15 -10 -15 -5 0 -10 7 -10 15 0 8
5 15 10 15 6 0 10 -7 10 -15z m-1687 -43 c12 -14 33 -19 77 -20 35 -1 70 -8
84 -17 13 -9 31 -13 40 -9 20 8 35 -25 15 -36 -7 -5 -10 -13 -5 -17 5 -4 11
-2 13 5 8 20 36 14 58 -14 13 -16 33 -28 54 -30 18 -2 45 -12 59 -22 34 -24
112 -34 290 -35 131 -1 158 -6 132 -22 -5 -3 -10 -24 -10 -45 0 -42 -18 -60
-59 -60 -12 0 -21 -4 -21 -10 0 -5 9 -10 20 -10 13 0 20 -7 20 -20 0 -11 4
-20 9 -20 5 0 23 -13 41 -30 32 -30 64 -39 75 -20 3 6 28 10 55 10 34 0 50 4
54 16 12 31 6 44 -19 44 -14 0 -25 5 -25 10 0 6 7 10 16 10 23 0 11 23 -14 30
-31 7 -70 88 -44 91 57 6 83 3 115 -10 42 -17 48 -48 8 -43 -21 2 -22 0 -10
-14 11 -13 10 -17 -4 -25 -21 -12 -22 -29 -2 -29 8 0 15 4 15 9 0 20 41 23 56
4 13 -17 14 -17 20 5 4 15 14 22 30 22 20 0 24 -5 24 -30 0 -20 5 -30 15 -30
8 0 15 5 15 10 0 19 21 10 77 -36 31 -25 67 -51 79 -56 13 -6 24 -19 24 -28 0
-9 11 -22 25 -28 25 -12 34 -45 15 -57 -15 -9 -12 -65 3 -65 7 0 23 -9 35 -20
12 -11 30 -20 42 -20 11 0 24 -8 27 -17 4 -10 15 -29 25 -42 21 -27 23 -57 6
-65 -8 -4 -9 -8 -3 -11 36 -19 40 -25 25 -35 -27 -18 -46 -11 -92 35 -46 45
-78 58 -78 31 0 -8 9 -18 20 -21 11 -3 20 -14 20 -23 0 -9 14 -25 30 -34 17
-9 30 -24 30 -33 0 -19 -14 -19 -30 0 -7 8 -21 15 -31 15 -11 0 -19 7 -19 15
0 19 -14 19 -30 0 -15 -18 -37 -20 -43 -2 -7 20 4 37 24 37 27 0 24 18 -3 22
-32 4 -31 42 0 46 27 4 40 28 24 44 -8 8 -18 6 -36 -6 -14 -9 -34 -16 -45 -16
-27 0 -34 -27 -16 -63 8 -16 15 -40 15 -52 0 -13 7 -28 15 -35 15 -13 21 -40
8 -40 -14 0 -43 34 -43 51 0 10 -4 20 -9 23 -5 3 -12 21 -15 40 -6 30 -13 37
-52 52 -44 17 -45 17 -60 -4 -18 -26 -33 -28 -49 -5 -11 14 -14 13 -35 -15
-27 -37 -40 -41 -40 -12 0 21 -12 24 -66 21 -36 -3 -51 13 -34 34 7 8 11 15 9
16 -51 11 -69 1 -69 -39 0 -36 -24 -102 -36 -102 -7 0 -14 7 -18 15 -3 9 -21
25 -40 36 -33 19 -35 23 -33 70 2 50 2 50 31 45 16 -3 35 -1 43 6 10 8 17 8
25 0 6 -6 24 -9 42 -7 115 14 116 14 116 -9 0 -24 36 -60 50 -51 6 4 10 13 10
22 0 10 6 14 20 10 20 -5 30 9 23 30 -3 8 -16 10 -34 6 -17 -3 -29 -1 -29 5 0
13 29 24 42 16 12 -8 57 45 58 67 0 9 -7 20 -16 23 -12 4 -14 13 -10 32 5 19
-1 35 -25 65 -25 32 -29 42 -19 54 9 11 9 15 1 15 -6 0 -11 -4 -11 -10 0 -5
-7 -10 -16 -10 -8 0 -25 -5 -37 -12 -12 -7 -34 -11 -49 -9 -15 1 -37 -3 -49
-9 -12 -7 -42 -15 -67 -19 -40 -5 -47 -10 -53 -35 -5 -17 -15 -34 -24 -38 -25
-15 -48 -67 -35 -83 8 -10 8 -15 0 -20 -6 -4 -10 -14 -9 -23 4 -41 -2 -72 -16
-86 -8 -8 -15 -21 -15 -30 0 -21 -42 -44 -48 -26 -3 8 -17 25 -31 39 -14 14
-31 35 -36 46 -6 11 -23 21 -38 23 -15 2 -27 8 -27 13 0 5 -7 9 -15 9 -12 0
-15 -14 -15 -64 0 -36 4 -67 9 -71 5 -3 12 -19 16 -35 6 -28 8 -29 51 -23 37
5 44 3 44 -11 0 -36 -20 -56 -54 -56 -29 0 -34 4 -40 30 -4 22 -11 30 -23 28
-13 -2 -19 8 -26 42 -9 45 -40 90 -63 90 -18 0 -25 28 -8 34 19 7 18 32 -3 40
-11 5 -22 1 -30 -10 -12 -16 -14 -16 -31 -1 -10 9 -23 17 -28 17 -6 0 -18 16
-27 35 -9 19 -22 35 -29 35 -21 0 -103 43 -116 62 -7 10 -34 32 -59 49 -50 35
-173 157 -173 172 0 11 19 -3 75 -55 69 -64 99 -88 135 -111 19 -11 40 -26 46
-32 6 -6 47 -28 90 -49 44 -21 91 -45 106 -52 14 -8 37 -14 51 -14 14 0 27 -7
31 -15 6 -17 36 -20 36 -4 0 8 5 7 15 -1 9 -7 19 -10 22 -6 4 4 1 11 -7 16 -8
5 -14 24 -14 44 0 39 -10 46 -27 18 -8 -13 -20 -17 -48 -14 -20 3 -42 9 -50
15 -7 6 -20 12 -29 14 -9 1 -18 7 -20 12 -2 6 -16 11 -32 11 -16 0 -30 7 -34
16 -13 33 -6 43 32 46 35 3 37 5 37 38 0 22 5 34 12 33 22 -4 -8 58 -33 69
-22 10 -22 12 -7 50 8 21 12 42 8 46 -4 4 -10 1 -12 -5 -8 -22 -23 -14 -23 12
0 14 -11 34 -25 47 -14 12 -25 25 -25 30 0 12 -64 97 -73 97 -5 1 -11 -8 -14
-19 -3 -11 -12 -20 -19 -20 -8 0 -14 -4 -14 -10 0 -15 -37 -12 -43 4 -7 18 1
26 25 26 16 0 17 3 8 20 -8 15 -17 19 -34 14 -14 -3 -27 -1 -31 7 -6 8 -16 2
-36 -22 -19 -23 -29 -29 -29 -18 0 9 6 22 14 29 17 13 10 40 -9 40 -7 0 -15
-6 -18 -12 -2 -7 -8 -10 -12 -6 -11 11 24 48 45 48 9 0 24 -8 33 -18z m1927
-1 c0 -10 -7 -21 -15 -25 -15 -5 -22 24 -8 37 12 13 23 7 23 -12z m-270 -10
c0 -10 -7 -24 -15 -31 -16 -13 -18 -8 -9 28 8 27 24 29 24 3z m-1050 -31 c17
-16 27 -30 22 -30 -18 0 -70 31 -76 45 -9 26 22 17 54 -15z m398 -48 c2 -6 -2
-12 -9 -12 -15 0 -59 39 -59 53 0 12 62 -25 68 -41z m1962 33 c0 -8 -4 -15
-10 -15 -5 0 -10 7 -10 15 0 8 5 15 10 15 6 0 10 -7 10 -15z m-1355 -14 c-3
-6 -11 -8 -17 -5 -6 4 -5 9 3 15 16 10 23 4 14 -10z m-525 -23 c0 -13 -32 -6
-37 9 -3 7 3 9 16 6 12 -3 21 -10 21 -15z m-1260 2 c0 -5 -5 -10 -11 -10 -5 0
-7 5 -4 10 3 6 8 10 11 10 2 0 4 -4 4 -10z m185 -42 c0 -9 17 -32 38 -50 41
-37 47 -58 17 -58 -25 0 -25 -8 0 -30 10 -9 22 -35 26 -58 5 -35 4 -42 -10
-42 -9 0 -16 7 -16 15 0 8 -4 15 -9 15 -4 0 -20 11 -35 25 -31 28 -56 34 -35
8 38 -46 106 -103 123 -103 3 0 3 7 -1 16 -7 19 21 44 46 43 11 0 12 -2 4 -6
-7 -2 -13 -16 -13 -29 0 -13 -4 -24 -10 -24 -5 0 -10 -7 -10 -15 0 -8 2 -15 5
-15 11 0 45 41 45 55 0 8 9 19 20 25 43 23 51 -69 9 -111 -25 -25 -41 -24 -73
6 -15 14 -31 25 -35 25 -10 0 -83 65 -178 158 l-64 63 23 28 c13 16 28 36 33
45 14 23 51 10 65 -22 6 -15 22 -35 35 -45 39 -28 32 4 -10 49 -41 43 -44 57
-12 52 13 -2 22 -10 22 -20z m609 5 c7 -17 -9 -33 -32 -33 -19 0 -27 31 -11
41 21 13 36 11 43 -8z m1226 13 c0 -3 -4 -8 -10 -11 -5 -3 -10 -1 -10 4 0 6 5
11 10 11 6 0 10 -2 10 -4z m990 -19 c0 -28 -17 -47 -42 -47 -30 0 -34 30 -7
51 32 25 49 24 49 -4z m-828 -4 c6 -7 18 -13 25 -13 15 0 17 -26 3 -35 -6 -4
-8 -11 -4 -16 3 -6 17 1 31 16 15 14 37 25 52 25 25 0 25 -1 -16 -40 -43 -41
-73 -51 -73 -26 0 13 -4 13 -27 1 -16 -9 -32 -11 -42 -5 -10 5 -26 3 -42 -6
-23 -12 -29 -11 -39 1 -10 13 -9 23 6 56 10 23 26 44 35 48 29 10 77 7 91 -6z
m-707 -3 c4 -6 -7 -10 -25 -10 -18 0 -29 4 -25 10 3 6 15 10 25 10 10 0 22 -4
25 -10z m229 -11 c-3 -5 -10 -7 -15 -3 -5 3 -7 10 -3 15 3 5 10 7 15 3 5 -3 7
-10 3 -15z m780 -10 c-3 -8 -24 -29 -45 -48 -31 -27 -42 -31 -53 -22 -12 10
-19 8 -35 -8 -25 -25 -61 -28 -61 -6 0 23 41 75 72 91 37 19 38 18 32 -16 -4
-16 -4 -30 -1 -30 3 0 23 16 44 35 36 33 61 35 47 4z m-2439 11 c-3 -5 -10
-10 -16 -10 -5 0 -9 5 -9 10 0 6 7 10 16 10 8 0 12 -4 9 -10z m1473 1 c9 -5
26 -13 37 -17 18 -7 18 -8 -5 -12 -14 -2 -31 -9 -37 -14 -10 -8 -13 -6 -13 5
0 8 -3 22 -6 31 -7 18 -1 20 24 7z m-399 -17 c8 -7 -4 -12 -43 -19 -37 -7 -38
-7 -27 14 9 17 18 20 39 15 15 -4 29 -8 31 -10z m-1160 -24 c11 0 21 5 21 10
0 6 7 10 15 10 8 0 15 -7 15 -15 0 -9 -7 -18 -15 -21 -8 -4 -15 -17 -15 -30 0
-14 -6 -24 -14 -24 -8 0 -16 -5 -18 -12 -3 -7 -11 -5 -26 7 -11 10 -19 23 -15
27 3 5 5 26 5 46 0 32 2 34 13 19 7 -9 22 -17 34 -17z m1248 24 c-3 -3 -12 -4
-19 -1 -8 3 -5 6 6 6 11 1 17 -2 13 -5z m480 -21 c5 -15 -47 -27 -60 -14 -7 7
-3 13 14 20 28 11 41 9 46 -6z m-2052 -63 c-3 -5 -10 -10 -16 -10 -5 0 -9 5
-9 10 0 6 7 10 16 10 8 0 12 -4 9 -10z m666 -11 c23 -23 17 -39 -9 -23 -16 11
-30 44 -18 44 3 0 15 -9 27 -21z m1299 1 c0 -24 -26 -38 -42 -22 -16 16 -2 42
22 42 13 0 20 -7 20 -20z m-1690 -25 c0 -14 7 -28 15 -31 25 -10 17 -27 -10
-22 -17 4 -25 1 -25 -8 0 -8 5 -14 10 -14 16 0 12 -27 -5 -34 -9 -3 -15 -11
-14 -18 3 -28 -2 -36 -20 -31 -16 4 -18 9 -10 36 5 18 9 44 9 59 0 16 5 28 10
28 6 0 10 11 10 23 0 13 3 27 7 30 13 14 23 6 23 -18z m520 4 c0 -5 -7 -9 -15
-9 -15 0 -20 12 -9 23 8 8 24 -1 24 -14z m-60 -19 c0 -5 -12 -10 -27 -10 -22
0 -25 2 -13 10 20 13 40 13 40 0z m1944 -19 c-17 -33 -42 -57 -51 -47 -10 9
18 56 34 56 7 0 13 5 13 10 0 6 4 10 9 10 5 0 3 -13 -5 -29z m-2736 0 c11 -6
10 -11 -4 -25 -19 -20 -40 -7 -31 18 7 18 16 20 35 7z m1462 -20 c0 -10 -6
-26 -14 -37 -14 -19 -15 -19 -21 1 -13 39 -13 43 -3 53 14 14 38 4 38 -17z
m1143 -31 c-5 -17 -79 -71 -150 -108 -19 -11 -21 -9 -16 11 3 12 11 29 17 37
6 8 -16 -5 -48 -28 -64 -45 -112 -55 -123 -25 -4 11 0 21 12 27 10 6 26 19 36
28 18 17 117 41 131 31 5 -2 14 -1 20 3 7 5 27 7 45 5 21 -2 38 4 52 18 26 26
31 26 24 1z m67 -35 c0 -8 -7 -15 -15 -15 -16 0 -20 12 -8 23 11 12 23 8 23
-8z m-670 -25 c0 -5 -4 -10 -10 -10 -5 0 -10 5 -10 10 0 6 5 10 10 10 6 0 10
-4 10 -10z m-1720 -43 c0 -7 -9 -23 -19 -36 -25 -32 -37 -11 -16 29 15 29 35
33 35 7z m1902 -5 c8 -8 7 -13 -6 -18 -11 -4 -25 1 -39 14 l-20 21 27 -3 c15
-1 32 -8 38 -14z m-591 -42 c21 -12 25 -35 8 -45 -14 -9 -69 14 -69 30 0 26
27 33 61 15z m901 -15 c0 -5 -5 -11 -11 -13 -6 -2 -11 4 -11 13 0 9 5 15 11
13 6 -2 11 -8 11 -13z m-2302 -21 c0 -8 -7 -14 -15 -14 -17 0 -18 2 -9 24 7
18 24 12 24 -10z m1470 -9 c7 -8 19 -15 26 -15 8 0 14 -4 14 -10 0 -14 -43
-13 -58 2 -14 14 -16 38 -3 38 5 0 14 -7 21 -15z m410 -26 c0 -6 -4 -7 -10 -4
-5 3 -10 11 -10 16 0 6 5 7 10 4 6 -3 10 -11 10 -16z m290 -19 c0 -5 -7 -10
-16 -10 -8 0 -12 5 -9 10 3 6 10 10 16 10 5 0 9 -4 9 -10z m75 -60 c-5 -8 -11
-8 -17 -2 -6 6 -7 16 -3 22 5 8 11 8 17 2 6 -6 7 -16 3 -22z m-627 -127 c2 -8
-5 -13 -17 -13 -21 0 -35 13 -24 24 10 10 36 3 41 -11z m452 7 c0 -5 -7 -10
-15 -10 -8 0 -15 5 -15 10 0 6 7 10 15 10 8 0 15 -4 15 -10z m-980 -64 c0 -8
-4 -17 -9 -20 -10 -7 -23 19 -14 28 11 11 23 6 23 -8z m430 -8 c-1 -25 -37
-75 -47 -64 -3 3 -2 16 4 29 6 12 14 30 17 40 8 25 26 21 26 -5z m490 -18 c0
-22 -7 -25 -29 -11 -16 10 -6 31 15 31 8 0 14 -9 14 -20z m-100 -72 c0 -18 20
-6 20 11 0 27 20 31 53 13 31 -19 35 -32 8 -32 -10 0 -26 -11 -35 -25 -9 -14
-21 -25 -26 -25 -21 0 -70 54 -70 77 0 24 0 24 25 6 13 -10 25 -21 25 -25z
m-272 -50 c14 -14 16 -58 4 -58 -17 0 -44 39 -39 55 8 18 19 19 35 3z m76 -11
c6 -9 7 -19 3 -23 -9 -9 -37 15 -37 33 0 18 20 12 34 -10z m170 -43 c17 -7 22
-49 7 -59 -5 -3 -17 2 -25 11 -18 18 -18 17 -10 38 7 18 7 18 28 10z m-52 -19
c0 -5 -5 -11 -11 -13 -6 -2 -11 4 -11 13 0 9 5 15 11 13 6 -2 11 -8 11 -13z
m150 -12 c27 -26 37 -53 20 -53 -12 0 -62 54 -62 68 0 18 11 14 42 -15z m-248
-19 c19 -7 20 -33 2 -56 -17 -23 -28 -23 -44 3 -11 18 -11 24 4 40 20 22 17
21 38 13z m476 -109 c7 -9 10 -18 7 -22 -8 -7 -37 15 -37 28 0 14 16 11 30 -6z
m-220 -40 c0 -8 -4 -17 -10 -20 -6 -4 -10 5 -10 20 0 15 4 24 10 20 6 -3 10
-12 10 -20z"/>
<path d="M3556 3281 c-4 -7 -5 -15 -2 -18 9 -9 19 4 14 18 -4 11 -6 11 -12 0z"/>
<path d="M3507 3245 c-9 -8 -22 -15 -30 -15 -8 0 -26 -11 -40 -24 -15 -14 -34
-26 -44 -28 -10 -2 -16 -8 -13 -13 6 -11 47 -7 72 6 23 12 78 11 78 -1 0 -6
-7 -13 -15 -16 -15 -6 -21 -34 -7 -34 4 0 16 13 26 27 19 26 19 27 -2 41 -26
17 -28 31 -5 47 10 8 12 14 5 19 -6 3 -17 -1 -25 -9z"/>
<path d="M3553 3224 c-7 -19 11 -39 26 -30 16 10 13 33 -4 40 -9 3 -18 -1 -22
-10z"/>
<path d="M3604 3199 c-3 -5 0 -17 7 -25 10 -12 14 -12 20 -2 5 7 9 16 9 19 0
12 -29 18 -36 8z"/>
<path d="M3658 3151 c-16 -15 -28 -33 -28 -39 0 -6 25 -16 55 -23 30 -7 60
-18 66 -26 6 -7 17 -13 24 -13 7 0 18 -7 25 -15 7 -8 19 -15 26 -15 8 0 14 7
14 15 0 8 -7 15 -15 15 -8 0 -15 7 -15 15 0 8 7 15 15 15 8 0 15 5 15 10 0 6
-6 10 -14 10 -8 0 -18 -4 -21 -10 -3 -5 -16 -10 -28 -10 -20 1 -21 2 -4 14 21
16 22 26 2 26 -8 0 -15 -4 -15 -10 0 -17 -25 -11 -51 11 -18 16 -20 22 -10 28
13 8 7 31 -7 31 -4 0 -19 -13 -34 -29z"/>
<path d="M3323 3153 c-20 -7 -15 -23 7 -23 11 0 20 4 20 9 0 13 -12 19 -27 14z"/>
<path d="M3730 3140 c0 -5 5 -10 11 -10 5 0 7 5 4 10 -3 6 -8 10 -11 10 -2 0
-4 -4 -4 -10z"/>
<path d="M3270 3109 c0 -5 5 -7 10 -4 6 3 10 8 10 11 0 2 -4 4 -10 4 -5 0 -10
-5 -10 -11z"/>
<path d="M3850 3060 c0 -5 5 -10 10 -10 6 0 10 5 10 10 0 6 -4 10 -10 10 -5 0
-10 -4 -10 -10z"/>
<path d="M3520 3040 c0 -5 7 -10 15 -10 8 0 15 5 15 10 0 6 -7 10 -15 10 -8 0
-15 -4 -15 -10z"/>
<path d="M3890 3045 c0 -9 40 -45 50 -45 6 0 10 -7 10 -15 0 -8 5 -15 10 -15
18 0 11 16 -23 48 -31 30 -47 39 -47 27z"/>
<path d="M3430 3010 c0 -5 11 -10 25 -10 14 0 25 5 25 10 0 6 -11 10 -25 10
-14 0 -25 -4 -25 -10z"/>
<path d="M3541 2976 c-12 -13 -19 -26 -14 -29 10 -6 53 27 53 42 0 18 -15 13
-39 -13z"/>
<path d="M3610 2989 c0 -8 9 -20 20 -27 11 -7 20 -10 20 -7 0 3 -9 15 -20 27
-14 16 -20 18 -20 7z"/>
<path d="M4000 2941 c0 -5 5 -13 10 -16 6 -3 10 -2 10 4 0 5 -4 13 -10 16 -5
3 -10 2 -10 -4z"/>
<path d="M3592 2928 c-14 -14 -16 -38 -4 -38 12 0 32 23 32 37 0 16 -12 17
-28 1z"/>
<path d="M3298 2902 c-32 -19 -35 -27 -12 -36 17 -7 66 33 58 46 -7 11 -14 9
-46 -10z"/>
<path d="M3730 2912 c0 -10 38 -42 50 -42 15 0 12 8 -10 30 -20 20 -40 26 -40
12z"/>
<path d="M3797 2863 c-7 -10 32 -47 40 -39 3 2 -4 14 -15 26 -11 12 -22 17
-25 13z"/>
<path d="M4100 2830 c0 -5 5 -10 10 -10 6 0 10 5 10 10 0 6 -4 10 -10 10 -5 0
-10 -4 -10 -10z"/>
<path d="M3165 2800 c3 -5 10 -10 16 -10 5 0 9 5 9 10 0 6 -7 10 -16 10 -8 0
-12 -4 -9 -10z"/>
<path d="M3350 2800 c0 -5 5 -10 10 -10 6 0 10 5 10 10 0 6 -4 10 -10 10 -5 0
-10 -4 -10 -10z"/>
<path d="M3920 2730 c0 -5 5 -10 10 -10 6 0 10 5 10 10 0 6 -4 10 -10 10 -5 0
-10 -4 -10 -10z"/>
<path d="M4185 2720 c3 -5 8 -10 11 -10 2 0 4 5 4 10 0 6 -5 10 -11 10 -5 0
-7 -4 -4 -10z"/>
<path d="M4020 2549 c0 -5 5 -7 10 -4 6 3 10 8 10 11 0 2 -4 4 -10 4 -5 0 -10
-5 -10 -11z"/>
<path d="M4207 2083 c-12 -11 -8 -23 8 -23 8 0 15 7 15 15 0 16 -12 20 -23 8z"/>
<path d="M4290 2014 c0 -8 5 -12 10 -9 6 4 8 11 5 16 -9 14 -15 11 -15 -7z"/>
<path d="M4180 1921 c0 -33 5 -63 10 -66 6 -4 24 -3 41 0 24 6 28 9 18 21 -6
7 -15 11 -20 8 -10 -6 -29 36 -22 49 6 11 -7 47 -18 47 -5 0 -9 -27 -9 -59z"/>
<path d="M4260 1840 c0 -5 5 -10 10 -10 6 0 10 5 10 10 0 6 -4 10 -10 10 -5 0
-10 -4 -10 -10z"/>
<path d="M2515 2050 c-3 -5 1 -10 9 -10 9 0 16 5 16 10 0 6 -4 10 -9 10 -6 0
-13 -4 -16 -10z"/>
<path d="M2560 2031 c0 -17 5 -31 10 -31 6 0 10 11 10 24 0 14 -4 28 -10 31
-6 4 -10 -7 -10 -24z"/>
<path d="M2560 1970 c0 -5 5 -10 10 -10 6 0 10 5 10 10 0 6 -4 10 -10 10 -5 0
-10 -4 -10 -10z"/>
<path d="M2635 1611 c-7 -12 12 -24 25 -16 11 7 4 25 -10 25 -5 0 -11 -4 -15
-9z"/>
<path d="M3470 2390 c0 -5 7 -10 15 -10 8 0 15 5 15 10 0 6 -7 10 -15 10 -8 0
-15 -4 -15 -10z"/>
<path d="M2900 1970 c0 -5 5 -10 10 -10 6 0 10 5 10 10 0 6 -4 10 -10 10 -5 0
-10 -4 -10 -10z"/>
<path d="M2040 2202 c0 -10 33 -42 43 -42 12 0 7 18 -9 34 -17 17 -34 21 -34
8z"/>
<path d="M2170 1605 c0 -9 5 -15 11 -13 6 2 11 8 11 13 0 5 -5 11 -11 13 -6 2
-11 -4 -11 -13z"/>
<path d="M2070 1530 c0 -20 25 -38 36 -27 8 7 -15 47 -26 47 -6 0 -10 -9 -10
-20z"/>
<path d="M3353 2118 c6 -22 2 -23 -50 -26 -38 -2 -60 -8 -68 -19 -8 -11 -14
-13 -19 -5 -10 17 -41 15 -57 -4 -10 -13 -10 -17 2 -25 21 -13 72 -10 93 6 12
9 42 15 73 15 35 0 59 6 73 17 26 23 25 25 -9 46 -38 22 -44 22 -38 -5z"/>
<path d="M2957 1893 c-12 -11 -8 -23 8 -23 8 0 15 7 15 15 0 16 -12 20 -23 8z"/>
<path d="M2980 1840 c0 -11 5 -20 10 -20 6 0 10 9 10 20 0 11 -4 20 -10 20 -5
0 -10 -9 -10 -20z"/>
<path d="M3205 1840 c-4 -6 5 -10 20 -10 15 0 24 4 20 10 -3 6 -12 10 -20 10
-8 0 -17 -4 -20 -10z"/>
<path d="M3093 1823 c-24 -9 -13 -23 18 -23 20 0 29 4 27 13 -5 13 -26 18 -45
10z"/>
<path d="M3160 1810 c0 -5 4 -10 9 -10 6 0 13 5 16 10 3 6 -1 10 -9 10 -9 0
-16 -4 -16 -10z"/>
<path d="M3301 1783 c-13 -3 -31 -11 -38 -19 -9 -9 -36 -14 -74 -14 -51 0 -60
-3 -57 -17 5 -26 57 -36 96 -17 17 8 32 19 32 24 0 6 16 10 35 10 28 0 35 4
35 20 0 11 -1 19 -2 19 -2 -1 -14 -4 -27 -6z"/>
<path d="M3060 1688 c0 -4 21 -10 48 -14 26 -4 50 -12 54 -18 4 -6 10 -7 14
-4 15 16 -30 42 -72 43 -24 0 -44 -3 -44 -7z"/>
<path d="M3036 1671 c-4 -7 -5 -15 -2 -18 9 -9 19 4 14 18 -4 11 -6 11 -12 0z"/>
<path d="M3075 1630 c-3 -5 1 -10 9 -10 9 0 16 5 16 10 0 6 -4 10 -9 10 -6 0
-13 -4 -16 -10z"/>
<path d="M3155 1530 c-3 -6 2 -13 12 -17 10 -4 21 -11 25 -17 4 -6 10 -7 14
-3 8 7 -24 47 -37 47 -4 0 -11 -5 -14 -10z"/>
<path d="M3490 1420 c0 -5 9 -10 20 -10 11 0 20 5 20 10 0 6 -9 10 -20 10 -11
0 -20 -4 -20 -10z"/>
<path d="M3620 1390 c0 -5 4 -10 9 -10 6 0 13 5 16 10 3 6 -1 10 -9 10 -9 0
-16 -4 -16 -10z"/>
<path d="M3507 1044 c-14 -14 -7 -35 11 -32 9 2 17 10 17 17 0 16 -18 25 -28
15z"/>
<path d="M3549 976 c-6 -13 -20 -27 -30 -29 -18 -5 -26 -37 -13 -50 7 -7 44
14 44 26 0 4 12 19 28 32 23 21 25 26 12 35 -22 15 -29 12 -41 -14z"/>
<path d="M2592 959 c2 -8 14 -15 26 -17 12 -2 22 -8 22 -13 0 -16 57 -10 64 7
9 22 9 22 -58 30 -48 6 -58 5 -54 -7z"/>
<path d="M3560 850 c0 -5 5 -10 10 -10 6 0 10 5 10 10 0 6 -4 10 -10 10 -5 0
-10 -4 -10 -10z"/>
<path d="M3530 811 c0 -5 5 -13 10 -16 6 -3 10 -2 10 4 0 5 -4 13 -10 16 -5 3
-10 2 -10 -4z"/>
<path d="M3600 765 c7 -8 16 -15 21 -15 5 0 9 7 9 15 0 9 -9 15 -21 15 -18 0
-19 -2 -9 -15z"/>
<path d="M2975 730 c3 -5 10 -10 16 -10 5 0 9 5 9 10 0 6 -7 10 -16 10 -8 0
-12 -4 -9 -10z"/>
<path d="M2300 1240 c0 -5 5 -10 10 -10 6 0 10 5 10 10 0 6 -4 10 -10 10 -5 0
-10 -4 -10 -10z"/>
<path d="M2260 1220 c0 -5 5 -10 11 -10 5 0 7 5 4 10 -3 6 -8 10 -11 10 -2 0
-4 -4 -4 -10z"/>
<path d="M2280 1190 c0 -5 5 -10 10 -10 6 0 10 5 10 10 0 6 -4 10 -10 10 -5 0
-10 -4 -10 -10z"/>
<path d="M2385 1160 c3 -5 10 -10 16 -10 5 0 9 5 9 10 0 6 -7 10 -16 10 -8 0
-12 -4 -9 -10z"/>
<path d="M2502 1020 c-10 -17 -10 -21 4 -27 22 -8 50 27 31 39 -18 11 -21 10
-35 -12z"/>
</g>
</svg>
